<svg xmlns="http://www.w3.org/2000/svg" width="329.004" height="307.043" viewBox="0 0 329.004 307.043"><defs><style>.a{fill:#645d5c;}.b{fill:#fce0cd;}.c{fill:#fff;}.d{fill:none;}.e{fill:#b3b3b3;}.f{fill:#3d8dcc;}.g{fill:#a0a0a0;}.h{fill:#ececec;}.i{fill:#efc0a0;}</style></defs><path class="a" d="M278.5,251.666q8.1,0,16.192-.025l25.58-.038q3.206,0,6.412-.009c3.088,0,3.093-4.8,0-4.8q-8.35,0-16.7.024l-25.438.039q-3.022,0-6.046.009c-3.088,0-3.094,4.8,0,4.8Z"/><path class="b" d="M210.377,64.739a1.584,1.584,0,0,0,1.894,1.718,7.276,7.276,0,0,1,2.584-.081,6.128,6.128,0,0,1,5.1,3.5c1.488,3.261.763,8.861-.881,12.194a17.769,17.769,0,0,1-6.695,7.921,12.925,12.925,0,0,1-6.987,1.457c-.315.657-.516,1.079-.516,1.079-.765,1.606-2.577,4.418-2.577,4.418a56.84,56.84,0,0,1-6.3,7.919A54.87,54.87,0,0,1,183.3,114a62.633,62.633,0,0,1-12.841,4.416,47.159,47.159,0,0,1-4.68.659c-10.048.914-18.386-1.7-26.256-8.11-7.506-6.111-10.79-15.771-11.991-26.457-.692-6.162-1.3-12.86-2.2-19.552,0,0-7.833-35.1,33.167-35.1C209.463,29.855,211.191,56.091,210.377,64.739Z"/><path class="c" d="M178.821,192.559c-.891,2.085-1.658,3.843-2.259,5.182l-2.12.41c-2.93-7.4-4.41-11-6.97-17.95-4.93-13.38-13.04-48.93-14.02-60.06,0,0-.069-.774-.173-1.967a36.157,36.157,0,0,0,12.5.9,47.159,47.159,0,0,0,4.68-.659A62.633,62.633,0,0,0,183.3,114,54.87,54.87,0,0,0,196,104.86c1.121-1.163,2.627-2.951,3.587-4.151,3.909,3.487,6.977,6.68,6.977,6.68s.979.733,2.369,1.745c-.689,2.8-1.506,5.982-1.937,7.507-2.02,7.16-4.47,13.73-6.58,20.17C195.026,153.253,184.442,179.415,178.821,192.559Z"/><path class="d" d="M203.152,10.522a46.717,46.717,0,0,0-31.166-8.617c-15.953,1.034-28.7,7.392-37.156,17.654-4.881,5.924-8.327,14.481-9.582,22.079a78.182,78.182,0,0,0,.942,26.807"/><path class="e" d="M206.992,116.64c.689-2.439,1.327-4.947,1.887-7.542,2.878,2.1,7.573,5.434,8.918,5.883,6.626,2.212,15.1,5.278,21.75,7.681,7.775,2.81,14.305,6.308,20.011,12.29,5.128,5.377,10.249,16.539,14.017,28.363,8.056,25.277,13.322,52.11,13.319,64.178a58.134,58.134,0,0,1-1.847,12.877c-1.666,4.917-3.484,10.107-10.25,15.167-9.583,7.166-25,13.166-33.389,15.944H129.134l-30.3-64.092c-1.249-3.52-1.955-9.873-.843-16.512,2.214-13.216,6.86-29.843,11.039-43.377a65.632,65.632,0,0,1,5-11.1,25.963,25.963,0,0,1,7.854-7.549c7.834-4.967,22.453-10.472,31.182-13.263.213,2.546.39,4.557.39,4.557.979,11.126,9.089,46.68,14.017,60.055,2.559,6.947,4.04,10.547,6.976,17.947l2.118-.41c4.39-9.774,17.609-41.872,23.849-60.923C202.524,130.371,204.971,123.8,206.992,116.64Z"/><path class="f" d="M181.267,186.769c1.489-3.568,3.155-7.625,4.889-11.927l-1.664-6.69c-.97-3.9-4.07-22.45-4.11-23.68,1.03-3.71,2.21-8.04,3.412-11.739-3.905-2.665-8.409-5.377-10.983-7.059-2.638,2.292-4.711,4.171-7.04,6.567l.228.642c1,2.814,2.812,7.431,3.876,9.971-.632,3.245-1.409,6.8-1.815,9.829a172.122,172.122,0,0,0-1.977,23.443c.483,1.512.948,2.882,1.387,4.074,2.559,6.947,4.04,10.547,6.976,17.947l2.118-.41C177.662,195.293,179.312,191.452,181.267,186.769Z"/><path class="g" d="M225.187,269.805l-47.476-2.158c3.867,12.318,7.528,24,10.055,32.078a5.638,5.638,0,0,1-2.787,6.692l-.566.293.808-.337c9.533-3.978,35.9-15.638,50.244-22.056a10.035,10.035,0,0,0,5.386-12.441l-1.571-4.545A32.408,32.408,0,0,1,225.187,269.805Z"/><path class="b" d="M216.17,276.815c-4.154,3.339-7.291,7.87-11.592,12.351-.617.644-3.149,2.333-5.1.827-1.284-.989-1.469-3.476-1-4.491,2.528-5.526,3.563-7.2,5.442-11.069-2.289,2.412-4.075,4.434-6.787,7.174l-2.763,2.794-3.471,3.508s-2.454,2.62-5.114,5.464c-2.829-9.036-6.463-20.621-10.132-32.305,3.319-4.163,6.241-8.857,10.294-12.418a18.32,18.32,0,0,1,10.234-4.814,25.234,25.234,0,0,1,4.749.161q4.506.46,8.982,1.174c5.422.865,11.5,1.879,15.836-1.792,5.62,4.974,10.722,14.79,13.539,23.952a22.192,22.192,0,0,0-2.914,1.7c-.627.429-2.645,2.216-3.312,2.579a46.014,46.014,0,0,1-16.549,5.113"/><path class="a" d="M2.318,251.673c8.444,0,16.888-.047,25.331-.069,1.407,0,2.813-.01,4.22-.01,3.089,0,3.094-4.8,0-4.8-8.579,0-17.159.046-25.738.069-1.271,0-2.542.01-3.813.01-3.088,0-3.093,4.8,0,4.8Z"/><path class="h" d="M27.55,210.891c30.789.512,101.073.671,126.168.839a8.791,8.791,0,0,1,8.329,6.14c5.971,18.886,19.4,61.642,25.719,81.855a5.633,5.633,0,0,1-5.4,7.317c-27.2-.1-100.462-.359-128.632-.93a5.62,5.62,0,0,1-5.263-3.963c-5.556-17.963-19.82-63.231-26.392-83.911A5.639,5.639,0,0,1,27.55,210.891Z"/><path class="a" d="M214.191,18.6c7.6,7.829,11.017,15.66,10.625,32.494-.152,6.5-2.209,12.728-4.75,18.516a.133.133,0,0,1-.24,0,6.181,6.181,0,0,0-4.971-3.236,6.977,6.977,0,0,0-4.21.666,2.582,2.582,0,0,1-1.661.248l-6.4-1.164a3.347,3.347,0,0,1-2.645-2.473h0a35.881,35.881,0,0,0-3.656-9.426A24.585,24.585,0,0,0,184.338,43.7s-2.213-.962-3.272-1.287c-4.882-1.5-17.62-2.3-17.62-2.3a140.928,140.928,0,0,0-17.454-.255,11.119,11.119,0,0,0-6.222,1.8c-2.34,1.767-3.285,4.823-4.735,7.4-2.519,4.48-7.97,6.575-9.118,11.678l-1.2.109a78.966,78.966,0,0,1-.815-11.614c-.212-12.224,4.655-24.491,10.642-30.067l.012-.014A46.606,46.606,0,0,1,143.794,10a53.374,53.374,0,0,1,32.55-10C187.9.138,199.6,2.919,208.317,12.589Z"/><path class="d" d="M211.292,16.388c6.591,5.908,9.874,12.722,12.083,21.067a41.991,41.991,0,0,1,1.36,12.877c-.243,4.66-.442,15.62-3.817,21.522"/><path class="a" d="M168.465,75.5c-.595-2.18,0-7.133,4.1-7.424,5.406.207,5.5,6.221,3.589,8.986C174.591,79.33,170.179,80.15,168.465,75.5Z"/><path class="a" d="M136.335,75.477c-.544-2.187,0-7.156,3.757-7.448,4.95.207,5.036,6.241,3.286,9.014C141.945,79.314,137.9,80.137,136.335,75.477Z"/><path class="i" d="M152.809,80.343c-.7,1.18-1.366,2.381-1.958,3.617a5.4,5.4,0,0,0-.643,2.128,3.119,3.119,0,0,0,1.051,2.455,4.67,4.67,0,0,0,1.936,1.1,11.041,11.041,0,0,0,1.416.187l-.638-.086.053.008a1.823,1.823,0,0,0,.957.043,1.791,1.791,0,0,0,.892-.285,2.4,2.4,0,0,0,.861-3.284,2.307,2.307,0,0,0-1.434-1.1c-.4-.058-.807-.094-1.211-.145l.638.086a2.293,2.293,0,0,1-.533-.142l.573.242a2.424,2.424,0,0,1-.445-.261l.486.375a2.68,2.68,0,0,1-.371-.343l.376.486a.667.667,0,0,1-.078-.131l.242.573a1.018,1.018,0,0,1-.056-.217l.085.638a1.55,1.55,0,0,1,0-.236l-.086.638a2.429,2.429,0,0,1,.167-.571l-.242.573a37.3,37.3,0,0,1,2.1-3.922,2.4,2.4,0,1,0-4.144-2.423Z"/><path class="i" d="M156.163,101.941c.171-.1.347-.182.52-.274.455-.24-.366.134-.077.026.1-.037.2-.078.3-.114a11.751,11.751,0,0,1,1.362-.4c.226-.053.454-.1.682-.143.116-.021.232-.039.348-.059.577-.1-.363.032-.021,0,.5-.046,1.006-.093,1.513-.1a13.853,13.853,0,0,1,1.4.045c.086.007.577.079.186.011l.092.016c.212.036.423.077.632.126a20.854,20.854,0,0,1,2.978,1.043,2.408,2.408,0,0,0,2.953-1.676,2.473,2.473,0,0,0-1.677-2.952,19.475,19.475,0,0,0-3.132-1.078,15.07,15.07,0,0,0-3.607-.331A14.915,14.915,0,0,0,153.74,97.8a2.4,2.4,0,1,0,2.423,4.145Z"/><path class="g" d="M219.012,123.833a30.534,30.534,0,0,1,2.653,4.664,11.787,11.787,0,0,1,1.141,3.125v-1.276q.992-1.361.507-.921.57-.426.256-.21a2.284,2.284,0,0,0-.343.21c-.382.229-.778.437-1.171.644-1.074.566-2.164,1.1-3.255,1.636-2.232,1.092-4.481,2.149-6.718,3.231a2.424,2.424,0,0,0-.485,3.769c2.033,2.188,4.083,4.362,6.064,6.6.588.664,2,1.76,2.043,2.723.027.587-.652,1.294-.972,1.782-2.032,3.1-4.023,6.224-6.012,9.351-5.213,8.194-10.392,16.41-15.662,24.567-2.947,4.559-5.919,9.1-8.962,13.6-1.736,2.565,2.421,4.969,4.145,2.422,10.673-15.77,20.477-32.1,30.952-48a6.213,6.213,0,0,0,1.276-4.091,7.9,7.9,0,0,0-2.319-4.5c-2.319-2.678-4.749-5.254-7.159-7.848l-.486,3.77c3.67-1.776,7.477-3.383,11.007-5.431a4.323,4.323,0,0,0,1.665-1.413,3.667,3.667,0,0,0-.095-3.138,32.326,32.326,0,0,0-3.925-7.689,2.465,2.465,0,0,0-3.284-.861,2.421,2.421,0,0,0-.861,3.284Z"/><path class="b" d="M163.208,150.008a3.553,3.553,0,0,0-.453-1,6.812,6.812,0,0,0-1.359-1.513l1.682-2.153a5.23,5.23,0,0,0,.294-4.991,5.415,5.415,0,0,0-3.178-2.524l1.686-1.875a5.98,5.98,0,0,0,1.156-3.931,5.308,5.308,0,0,0-.742-2.1c-.526-.686-2.284-1.214-3.133-1.375a56.018,56.018,0,0,0-14.657-1.052,6.307,6.307,0,0,1,1.213-1.973A8.774,8.774,0,0,1,150,123.791c2.869-.65,5.6-1.032,8.412-1.893a3.761,3.761,0,0,0,2.5-4.465,4.484,4.484,0,0,0-2.234-2.419c-2.018-1.165-4.165-1.126-6.94-.867-2.742.258-8.206.54-10.729,1.808-3.014,1.511-3.845,4.211-5.783,6.78-1,1.323-4.143,7.808-5.381,9.869a8.653,8.653,0,0,0-1.234,4.624q-.342,10.143-.7,20.293a72.4,72.4,0,0,1-.66,8.659l-.548,2.825c5.765,2.358,13.485,5.568,19.395,8.2.355-.793.7-1.573.791-1.8.61-1.41,1.489-3.817,1.983-5.262.6-1.765,1.417-4.565,2.221-7.343l.388.068a3.865,3.865,0,0,0,4.313,3.854,5.418,5.418,0,0,0,3.446-2.563,20.738,20.738,0,0,0,1.887-4.228c.777-2.281,1.266-3.958,1.956-6.288A6.856,6.856,0,0,0,163.208,150.008Z"/><path class="i" d="M135.756,131.344a50.26,50.26,0,0,1,16.651-1.361,28.14,28.14,0,0,1,7.5,1.254c.121.046.691.4.506.173a4.923,4.923,0,0,1,.264.964,4.629,4.629,0,0,1-.49,1.88,2.473,2.473,0,0,0,0,3.394,2.418,2.418,0,0,0,3.394,0,7.843,7.843,0,0,0,.945-8.7c-1.549-2.655-5.581-2.928-8.276-3.31a56.424,56.424,0,0,0-21.766,1.077c-3,.745-1.727,5.375,1.276,4.629Z"/><path class="i" d="M141.983,138.858a59.243,59.243,0,0,1,14.528.574c1.509.214,3.318.571,4.247,1.405a2.6,2.6,0,0,1,.247,3.293,2.42,2.42,0,0,0,.861,3.283,2.45,2.45,0,0,0,3.284-.861,7.5,7.5,0,0,0,.294-7.414,8.705,8.705,0,0,0-5.907-4.01,57.606,57.606,0,0,0-8.263-1.074,46.452,46.452,0,0,0-9.291,0,2.473,2.473,0,0,0-2.4,2.4,2.415,2.415,0,0,0,2.4,2.4Z"/><path class="i" d="M143.14,146.966c3.687.267,7.371.561,11.045.972,2.148.24,6.435.23,6.8,3.149.191,1.52-.569,3.125-1,4.548a49.684,49.684,0,0,1-1.845,5.459c-.477,1.095-1.139,2.639-2.332,3.135a1.421,1.421,0,0,1-1.927-1.365,2.463,2.463,0,0,0-2.4-2.4,2.418,2.418,0,0,0-2.4,2.4,6.5,6.5,0,0,0,2.522,5.026,6.065,6.065,0,0,0,5.636.9c3.939-1.463,5.392-5.731,6.59-9.387,1.119-3.416,2.969-7.56,1.284-11.077a8.572,8.572,0,0,0-3.607-3.657,15.417,15.417,0,0,0-5.592-1.334c-4.248-.511-8.51-.864-12.776-1.173a2.4,2.4,0,1,0,0,4.8Z"/><path class="a" d="M178.269,61.211l2.661,2.451a2.518,2.518,0,0,0,1.7.7,2.678,2.678,0,0,0,1.7-.7,2.4,2.4,0,0,0,0-3.394l-2.662-2.451a2.513,2.513,0,0,0-1.7-.7,2.678,2.678,0,0,0-1.7.7,2.4,2.4,0,0,0,0,3.394Z"/><path class="a" d="M63.666,138.87a12.294,12.294,0,0,0,5.041-4.2,8.694,8.694,0,0,0,1.136-7.637c-2.5-6.858-11.244-4.324-16.035-1.715a11.03,11.03,0,0,0-3.7,2.771,3.609,3.609,0,0,0,.245,4.715c2.2,2.136,5.525,1.13,8.033.26,5.629-1.955,11.95-5.366,14.231-11.225a8.03,8.03,0,0,0-1.28-8.158,10.353,10.353,0,0,0-7.895-3.294c-3.221-.027-6.5.935-9.594,1.765a41.589,41.589,0,0,0-7.006,2.5,28.933,28.933,0,0,0-6.171,4.043c-2.1,1.758-5.355,4.393-3.716,7.47,1.343,2.522,4.6,2.6,7.043,2.145a62.959,62.959,0,0,0,7.991-2.013,57.279,57.279,0,0,0,14.627-7.391c2.452-1.682,4.9-3.381,6.391-6.034a9.225,9.225,0,0,0,.346-8.928C70.57,98.837,63.339,99,58.418,99.7a71.654,71.654,0,0,0-18.226,5.384,34.95,34.95,0,0,0-7.565,4.333,10.728,10.728,0,0,0-4.153,5.478c-.5,1.953-.034,4.192,1.832,5.2a6.664,6.664,0,0,0,3.908.514c3.889-.445,7.6-2,11.164-3.539a136.822,136.822,0,0,0,13.077-6.562q3.272-1.845,6.453-3.846a35.615,35.615,0,0,0,5.858-4.1c3.316-3.2,5.711-10.031,1.483-13.521-1.905-1.572-4.463-2.04-6.85-2.3a25.113,25.113,0,0,0-7.037.259,74.185,74.185,0,0,0-17.6,5.445,44.112,44.112,0,0,0-7.065,4.018,2.465,2.465,0,0,0-.861,3.284,2.422,2.422,0,0,0,3.284.861c5.973-4.186,12.883-6.5,19.922-8.182a26.06,26.06,0,0,1,9.195-.9,11.74,11.74,0,0,1,3.279.785,4.847,4.847,0,0,1,.638.365c-.389-.272.333.347.134.11-.152-.182.213.369.234.421a2.81,2.81,0,0,1,.155.685c.266,2.575-1.643,4.93-3.635,6.292-2.423,1.656-4.915,3.21-7.443,4.7a133.044,133.044,0,0,1-16.2,8.277,43.458,43.458,0,0,1-7.385,2.48c-.262.057-.525.106-.789.155-.093.018-.188.03-.281.046-.35.059.588-.046.012,0-.4.028-.783.045-1.18.042-.607,0,.035.033.04.022a1.769,1.769,0,0,1-.455-.116c.189.157.484.26.149.041.143.094.392.385.1.027l.617,1.059c-.015-.043-.29-.763-.124-.256-.022-.065.023-.781-.045-.263a1.8,1.8,0,0,1,.25-.783,7.763,7.763,0,0,1,1.941-2.183,29.49,29.49,0,0,1,7.369-4.2,77.647,77.647,0,0,1,8.851-3.041,53.937,53.937,0,0,1,8.343-1.871c3.47-.44,11.687-.423,9.423,5.377-1,2.564-3.535,4.062-5.708,5.523a60.015,60.015,0,0,1-7.084,4.145,45.6,45.6,0,0,1-6.968,2.7c-1.3.389-2.6.729-3.922,1.032a17.308,17.308,0,0,1-3.761.682,4.251,4.251,0,0,1-.83-.142l-.11-.062a.773.773,0,0,1,.415.532c.289.957-.346.725.271.33a12.2,12.2,0,0,0,1.415-1.364c.537-.491,1.087-.975,1.66-1.424a23.8,23.8,0,0,1,5.685-3.3,49.816,49.816,0,0,1,7-2.113c2.73-.664,6.021-1.727,8.764-.575a3.451,3.451,0,0,1,1.865,5c-1.14,2.4-3.394,4.05-5.623,5.359a28.894,28.894,0,0,1-4.78,2.273q-1.237.45-2.509.8a5.512,5.512,0,0,1-.915.227c.219-.021-.727.081-.5-.046.041-.023.112.2.146.146q-.334,2.187.3,1.427.351-.251.712-.488A21.436,21.436,0,0,1,57,129.066a18.692,18.692,0,0,1,4.727-1.557c1.082-.207,2.623-.388,3.347.57a3.218,3.218,0,0,1,.327,2.369,6.262,6.262,0,0,1-1.515,2.694c-.036.042-.576.527-.16.2a5.127,5.127,0,0,1-.558.363c-.622.371-1.281.684-1.922,1.02-2.736,1.437-.313,5.581,2.423,4.145Z"/></svg>